PathFileType	4	(X/Y/Z)	/Users/itak/Documents/Research/Walk-IL/dataset/trc/00510_00183.trc
DataRate	CameraRate	NumFrames	NumMarkers	Units	OrigDataRate	OrigDataStartFrame	OrigNumFrames
100.000000	100.000000	4	53	mm	100.000000	238	382
Frame#	Time	RPSI			LPSI			L3			STRN			T10			C7			CLAV			RBAK			LBAK			LSHO			LUPA			LAEL			LAOL			LWTS			LWPS			LFRA			LIFD			LHPS			LHTS			RSHO			RUPA			RAEL			RAOL			RWTS			RWPS			RFRA			RIFD			RHTS			RBHD			LFHD			RFHD			LBHD			LHIP			RHIP			RASI			LASI			LKNE			LTHI			LANK			LTIP			LTOE			LMT1			LMT5			LHEE			RKNE			RTHI			RANK			RTIP			RTOE			RMT1			RMT5			RHEE			RHPS			
		X1	Y1	Z1	X2	Y2	Z2	X3	Y3	Z3	X4	Y4	Z4	X5	Y5	Z5	X6	Y6	Z6	X7	Y7	Z7	X8	Y8	Z8	X9	Y9	Z9	X10	Y10	Z10	X11	Y11	Z11	X12	Y12	Z12	X13	Y13	Z13	X14	Y14	Z14	X15	Y15	Z15	X16	Y16	Z16	X17	Y17	Z17	X18	Y18	Z18	X19	Y19	Z19	X20	Y20	Z20	X21	Y21	Z21	X22	Y22	Z22	X23	Y23	Z23	X24	Y24	Z24	X25	Y25	Z25	X26	Y26	Z26	X27	Y27	Z27	X28	Y28	Z28	X29	Y29	Z29	X30	Y30	Z30	X31	Y31	Z31	X32	Y32	Z32	X33	Y33	Z33	X34	Y34	Z34	X35	Y35	Z35	X36	Y36	Z36	X37	Y37	Z37	X38	Y38	Z38	X39	Y39	Z39	X40	Y40	Z40	X41	Y41	Z41	X42	Y42	Z42	X43	Y43	Z43	X44	Y44	Z44	X45	Y45	Z45	X46	Y46	Z46	X47	Y47	Z47	X48	Y48	Z48	X49	Y49	Z49	X50	Y50	Z50	X51	Y51	Z51	X52	Y52	Z52	X53	Y53	Z53	

239	2.38	597.1720581054688	923.845458984375	572.2756958007812	674.5438232421875	906.6618041992188	476.5951232910156	634.6236572265625	994.2443237304688	532.9623413085938	834.8399047851562	1167.046142578125	610.7076416015625	615.6848754882812	1100.778198242188	535.5131225585938	653.748291015625	1332.685546875	547.4664306640625	799.8941040039062	1259.826538085938	594.4544677734375	582.0831298828125	1211.396362304688	618.5439453125	656.442138671875	1276.26171875	462.7052001953125	767.72607421875	1318.812377929688	415.6928100585938	740.1907958984375	1207.801879882812	349.6937255859375	708.0745849609375	1028.975952148438	308.5420532226562	623.7943115234375	1004.225891113281	358.90234375	878.2820434570312	929.8668212890625	377.7417907714844	828.7977294921875	852.3336791992188	355.6165771484375	755.6203002929688	979.0693969726562	314.6920471191406	945.9703369140625	799.0142822265625	433.3495788574219	874.6101684570312	821.3056640625	365.992919921875	924.0781860351562	860.939208984375	376.8247375488281	660.421630859375	1332.359497070312	704.4428100585938	625.9780883789062	1269.875	757.6893920898438	618.8598022460938	1026.381591796875	826.8297119140625	586.6629028320312	980.3749389648438	791.552490234375	831.5704956054688	970.5579223632812	824.6238403320312	794.1112670898438	919.8563842773438	889.4453125	651.272216796875	989.928466796875	844.83740234375	948.863037109375	880.5835571289062	870.8411865234375	907.5917358398438	937.806640625	876.0628662109375	634.50390625	1474.32275390625	607.7514038085938	805.3690185546875	1567.520263671875	560.0823974609375	730.2568359375	1558.279418945312	662.583984375	719.1268310546875	1479.485107421875	471.15478515625	847.5169677734375	847.9649047851562	451.3554382324219	607.3775024414062	847.0863037109375	747.03759765625	725.8552856445312	897.9533081054688	749.9340209960938	869.0256958007812	900.7317504882812	556.6500854492188	1038.449096679688	527.9169921875	623.9658203125	968.2381591796875	651.5775756835938	558.397705078125	1058.57666015625	74.36290740966797	606.7971801757812	1063.667846679688	379.84912109375	613.1063232421875	1201.945678710938	70.47732543945312	741.5672607421875	1125.152709960938	73.46292877197266	740.1897583007812	1159.666870117188	60.28776168823242	641.1893310546875	992.8597412109375	83.70826721191406	640.1248779296875	686.2288208007812	460.6634826660156	708.09130859375	646.8260498046875	716.6602172851562	764.701171875	535.2297973632812	77.10281372070312	552.184814453125	670.95458984375	316.0800170898438	673.031494140625	702.4153442382812	33.66128158569336	651.8087768554688	681.788818359375	39.61187362670898	579.2122192382812	603.3390502929688	48.52146911621094	635.8447875976562	525.1012573242188	78.71015930175781	481.823974609375	860.57080078125	895.828857421875	910.8422241210938	
240	2.39	612.7840576171875	930.1632690429688	577.7877807617188	691.7167358398438	912.619384765625	483.5543212890625	650.72314453125	999.1986694335938	540.5995483398438	849.7731323242188	1172.183349609375	617.1298828125	630.4953002929688	1105.146484375	543.56298828125	667.4522094726562	1336.9296875	554.8187255859375	814.4261474609375	1265.02783203125	600.7178344726562	596.732177734375	1215.60302734375	626.7882690429688	669.2183837890625	1280.843505859375	470.7178649902344	779.9197387695312	1323.027221679688	422.4417419433594	749.3279418945312	1213.995361328125	356.8791809082031	713.029296875	1036.312866210938	314.9480285644531	630.7353515625	1012.0703125	368.7390747070312	884.7093505859375	934.2970581054688	377.6112365722656	834.2473754882812	857.0589599609375	357.1791381835938	760.3554077148438	985.509765625	318.8961181640625	955.8946533203125	804.05419921875	427.1570129394531	880.3250122070312	825.5452270507812	364.6458435058594	930.4705810546875	866.107177734375	372.7453002929688	675.3983154296875	1337.181396484375	711.3600463867188	641.8306274414062	1274.9638671875	765.5752563476562	638.3428955078125	1032.838256835938	835.4585571289062	606.0872192382812	985.3040161132812	802.15087890625	852.3603515625	983.0728759765625	828.2860717773438	818.8698120117188	931.2042846679688	894.41845703125	672.0941162109375	997.2027587890625	853.1126098632812	974.2535400390625	896.9446411132812	869.7380981445312	931.169921875	952.6155395507812	876.8956298828125	647.5665283203125	1478.697875976562	613.7838745117188	818.7587890625	1572	567.5509643554688	743.0372314453125	1562.5185546875	669.6015625	733.118408203125	1484.253784179688	477.7610778808594	864.579345703125	853.4732666015625	460.9517211914062	619.375244140625	853.174072265625	752.4599609375	738.2655639648438	902.684326171875	757.6007690429688	884.2154541015625	905.7540283203125	566.8870849609375	1048.317260742188	526.3358764648438	630.1937866210938	981.573486328125	653.1792602539062	565.924560546875	1091.216430664062	71.37447357177734	631.3837890625	1080.921630859375	378.0160827636719	624.1768798828125	1231.60205078125	73.87860870361328	769.7757568359375	1154.767700195312	76.72407531738281	766.0855712890625	1191.829467773438	60.41249847412109	668.5147094726562	1024.996459960938	82.03696441650391	662.3973388671875	689.5020751953125	465.3431396484375	713.8231811523438	655.5481567382812	722.0387573242188	770.586669921875	536.7745361328125	82.50323486328125	554.5223999023438	672.5606079101562	320.8711242675781	678.6771240234375	702.666015625	33.56064605712891	652.4276123046875	682.3011474609375	41.88479614257812	580.6223754882812	603.8421020507812	49.72335433959961	637.5299682617188	527.3729248046875	86.7000732421875	484.225830078125	886.7996215820312	908.9048461914062	912.9258422851562	
241	2.4	628.6868896484375	936.2257080078125	583.2166137695312	709.0841674804688	918.1724853515625	490.4827575683594	667.0791625976562	1003.684020996094	547.7560424804688	864.587890625	1176.599487304688	623.9822998046875	645.5983276367188	1108.973510742188	551.0047607421875	681.3905029296875	1340.606811523438	561.905029296875	828.9657592773438	1269.569091796875	607.3392944335938	611.3216552734375	1219.171997070312	634.2965698242188	682.6043701171875	1284.932373046875	478.4426574707031	792.9745483398438	1326.767578125	429.4492492675781	759.7131958007812	1219.577514648438	364.2516174316406	719.4769287109375	1043.057006835938	321.9790954589844	639.013427734375	1019.293029785156	378.6468505859375	891.8626708984375	938.224853515625	379.158447265625	840.719482421875	861.20068359375	360.1468505859375	766.4669189453125	991.2352294921875	324.1209106445312	966.59716796875	808.6820068359375	421.6406860351562	887.0228271484375	829.6239624023438	364.2329711914062	937.443115234375	871.0438232421875	370.0110473632812	689.8526000976562	1341.202392578125	718.0802001953125	656.9284057617188	1279.159790039062	772.9818725585938	656.8776245117188	1038.260375976562	843.4181518554688	624.862548828125	989.3212280273438	811.7877197265625	871.9391479492188	994.7222900390625	831.9232177734375	842.2657470703125	941.5237426757812	898.89013671875	691.8859252929688	1003.465515136719	860.718994140625	997.9970092773438	912.3936157226562	868.5031127929688	953.2267456054688	966.4383544921875	877.7351684570312	660.602783203125	1482.5302734375	619.8447265625	832.1273803710938	1575.829956054688	574.9173583984375	755.7926025390625	1566.251953125	676.5136108398438	747.0369873046875	1488.247192382812	484.44189453125	881.6620483398438	858.0834350585938	470.6077270507812	631.43310546875	858.899658203125	757.6824340820312	750.6898193359375	906.8369140625	765.0904541015625	899.5877685546875	909.9287109375	577.1353149414062	1058.221923828125	524.059814453125	636.5521240234375	994.9657592773438	653.8226318359375	573.3275756835938	1120.201782226562	69.86846923828125	653.4130249023438	1097.168701171875	376.1752014160156	635.1261596679688	1257.083984375	76.44602966308594	795.556884765625	1180.248046875	79.498779296875	789.4788818359375	1220.010009765625	61.05764770507812	693.4154052734375	1053.37353515625	81.37897491455078	682.2272338867188	693.763916015625	469.694091796875	720.303466796875	664.4962158203125	727.0507202148438	776.4691772460938	538.509033203125	88.44147491455078	557.2809448242188	675.0303955078125	325.5015869140625	685.068359375	702.9292602539062	33.37878036499023	653.2137451171875	682.8861083984375	44.3931770324707	582.2614135742188	604.4160766601562	51.15851974487305	639.3933715820312	529.9029541015625	95.33274841308594	487.158447265625	911.4923706054688	921.0018920898438	914.6785888671875	
242	2.41	644.8093872070312	941.8187866210938	588.5401000976562	726.5774536132812	923.14892578125	497.3584594726562	683.62744140625	1007.553833007812	554.4739379882812	879.2704467773438	1180.17333984375	631.2805786132812	660.9295654296875	1112.132080078125	557.8744506835938	695.5864868164062	1343.593383789062	568.741455078125	843.510498046875	1273.307739257812	614.338134765625	625.8500366210938	1221.996459960938	641.0953979492188	696.6117553710938	1288.40380859375	485.8521423339844	806.9174194335938	1329.913696289062	436.71728515625	771.4581909179688	1224.377319335938	371.7213439941406	727.656982421875	1048.963500976562	329.4776916503906	648.756103515625	1025.667724609375	388.4110107421875	900.0332641601562	941.4281005859375	382.3140869140625	848.3863525390625	864.535400390625	364.6088256835938	774.2257080078125	995.9957275390625	330.2563781738281	978.1803588867188	812.71826171875	416.9486694335938	894.8392333984375	833.3057861328125	364.9549255371094	945.1990356445312	875.4945678710938	368.6992797851562	703.82421875	1344.3193359375	724.6410522460938	671.3009643554688	1282.34033203125	779.9443969726562	674.4456787109375	1042.501586914062	850.7431640625	642.9470825195312	992.295654296875	820.444580078125	890.3228759765625	1005.332336425781	835.595458984375	864.2334594726562	950.652099609375	902.915283203125	710.6320190429688	1008.55908203125	867.6952514648438	1020.103515625	926.7337036132812	867.3383178710938	973.7902221679688	979.1036376953125	878.71240234375	673.6373291015625	1485.644409179688	625.957763671875	845.4603881835938	1578.920288085938	582.1986694335938	768.5104370117188	1569.341918945312	683.33642578125	760.8930053710938	1491.337768554688	491.2162475585938	898.734130859375	861.7044677734375	480.2869873046875	643.5068359375	864.0306396484375	762.6517944335938	763.0533447265625	910.26708984375	772.387939453125	915.0536499023438	913.166015625	587.3629760742188	1068.271728515625	521.33837890625	643.2069091796875	1008.370483398438	653.6137084960938	580.7210083007812	1145.303100585938	69.39745330810547	672.4895629882812	1112.345703125	374.322265625	645.9424438476562	1278.431396484375	77.68999481201172	818.4849853515625	1201.628173828125	81.25442504882812	810.0590209960938	1244.044799804688	61.66047286987305	715.4572143554688	1077.741577148438	81.10114288330078	699.457275390625	699.295654296875	473.4777526855469	727.584228515625	673.8491821289062	731.4578247070312	782.3919677734375	540.4982299804688	94.9368896484375	560.45703125	678.5855102539062	329.7666931152344	692.2244873046875	703.2156982421875	33.12161254882812	654.2257690429688	683.6055908203125	47.14939880371094	584.1790161132812	605.0960083007812	52.91823959350586	641.4229125976562	532.757080078125	104.584602355957	490.6100463867188	934.6265869140625	931.9752807617188	916.2618408203125	
